<svg width="19" height="19" viewBox="0 0 19 19" fill="none" xmlns="http://www.w3.org/2000/svg">
<path fill-rule="evenodd" clip-rule="evenodd" d="M7.5 13C10.5376 13 13 10.5376 13 7.5C13 4.46243 10.5376 2 7.5 2C4.46243 2 2 4.46243 2 7.5C2 10.5376 4.46243 13 7.5 13ZM7.5 15C11.6421 15 15 11.6421 15 7.5C15 3.35786 11.6421 0 7.5 0C3.35786 0 0 3.35786 0 7.5C0 11.6421 3.35786 15 7.5 15Z" fill="black"/>
<path fill-rule="evenodd" clip-rule="evenodd" d="M11.707 12.2928C12.0975 11.9023 12.7306 11.9023 13.1212 12.2928L17.707 16.8786C18.0975 17.2691 18.0975 17.9023 17.707 18.2928C17.3164 18.6833 16.6833 18.6833 16.2927 18.2928L11.707 13.707C11.3164 13.3165 11.3164 12.6833 11.707 12.2928Z" fill="black"/>
</svg>
