<svg width="25" height="25" viewBox="0 0 25 25" fill="none" xmlns="http://www.w3.org/2000/svg">
<path d="M24.9875 8.40696L23.9391 14.4215C23.8098 15.0859 23.2804 15.4898 22.67 15.4974H7.38542L7.08196 17.208H21.6492C22.4162 17.2663 22.9365 17.8096 22.9459 18.5046C22.8901 19.2701 22.3467 19.7918 21.6492 19.8013H5.53694C4.66554 19.723 4.14594 19.0284 4.24023 18.2563L4.92996 14.5042L3.88156 3.96501L0.901914 3.02703C0.173769 2.73792 -0.123419 2.07921 0.0466436 1.39926C0.329414 0.69061 1.00698 0.366839 1.67441 0.543985L5.48175 1.75792C5.99466 1.95019 6.28973 2.37005 6.3646 2.86151L6.58531 4.9583L23.8563 6.88955C24.6498 7.06144 25.0806 7.69001 24.9875 8.40696ZM9.48483 22.524C9.48483 23.6173 8.59858 24.5035 7.50529 24.5035C6.41202 24.5035 5.52577 23.6173 5.52577 22.524C5.52577 21.4307 6.41204 20.5445 7.50529 20.5445C8.59856 20.5445 9.48483 21.4308 9.48483 22.524ZM21.3026 22.524C21.3026 23.6173 20.4163 24.5035 19.323 24.5035C18.2297 24.5035 17.3435 23.6173 17.3435 22.524C17.3435 21.4307 18.2297 20.5445 19.323 20.5445C20.4163 20.5445 21.3026 21.4308 21.3026 22.524Z" fill="black"/>
</svg>
